<mxfile host="Electron" agent="Mozilla/5.0 (Windows NT 10.0; Win64; x64) AppleWebKit/537.36 (KHTML, like Gecko) draw.io/26.1.1 Chrome/132.0.6834.210 Electron/34.3.3 Safari/537.36" version="26.1.1">
  <diagram name="Page-1" id="2ca16b54-16f6-2749-3443-fa8db7711227">
    <mxGraphModel dx="1252" dy="828" grid="1" gridSize="10" guides="1" tooltips="1" connect="1" arrows="1" fold="1" page="1" pageScale="1" pageWidth="1100" pageHeight="850" background="#ffffff" math="0" shadow="0">
      <root>
        <mxCell id="0" />
        <mxCell id="1" parent="0" />
        <mxCell id="P3KeosH_1Nq0pWPk4QVd-1" value="" style="group" parent="1" vertex="1" connectable="0">
          <mxGeometry x="80" y="120" width="200" height="150" as="geometry" />
        </mxCell>
        <mxCell id="2ed32ef02a7f4228-1" value="&lt;div style=&quot;box-sizing: border-box ; width: 100% ; padding: 2px&quot;&gt;&lt;br&gt;&lt;/div&gt;" style="verticalAlign=top;align=center;overflow=fill;html=1;rounded=0;shadow=0;comic=0;labelBackgroundColor=none;strokeColor=#000000;strokeWidth=1;fillColor=#ffffff;fontFamily=Verdana;fontSize=12;fontColor=#000000;" parent="P3KeosH_1Nq0pWPk4QVd-1" vertex="1">
          <mxGeometry width="200" height="140" as="geometry" />
        </mxCell>
        <mxCell id="SjU_2BTI9DgWFUzOwO9X-2" value="concerts" style="rounded=0;whiteSpace=wrap;html=1;" parent="P3KeosH_1Nq0pWPk4QVd-1" vertex="1">
          <mxGeometry width="200" height="33.333333333333336" as="geometry" />
        </mxCell>
        <mxCell id="SjU_2BTI9DgWFUzOwO9X-4" value="name&lt;br&gt;&lt;div&gt;date&lt;br&gt;&lt;div&gt;price&lt;br&gt;starting_time&lt;div&gt;scene_number&lt;/div&gt;&lt;div&gt;max_capacity&lt;/div&gt;&lt;/div&gt;&lt;/div&gt;" style="text;html=1;strokeColor=none;fillColor=none;align=left;verticalAlign=top;whiteSpace=wrap;rounded=0;" parent="P3KeosH_1Nq0pWPk4QVd-1" vertex="1">
          <mxGeometry x="11" y="33.333333333333336" width="90" height="100" as="geometry" />
        </mxCell>
        <mxCell id="SjU_2BTI9DgWFUzOwO9X-6" value="varchar&lt;div&gt;date&lt;/div&gt;&lt;div&gt;float&lt;/div&gt;&lt;div&gt;time&lt;/div&gt;&lt;div&gt;int&lt;/div&gt;&lt;div&gt;int&lt;/div&gt;" style="text;html=1;strokeColor=none;fillColor=none;align=left;verticalAlign=top;whiteSpace=wrap;rounded=0;" parent="P3KeosH_1Nq0pWPk4QVd-1" vertex="1">
          <mxGeometry x="100" y="33.333333333333336" width="90" height="83.33333333333334" as="geometry" />
        </mxCell>
        <mxCell id="P3KeosH_1Nq0pWPk4QVd-2" value="" style="group" parent="1" vertex="1" connectable="0">
          <mxGeometry x="390" y="120" width="200" height="80" as="geometry" />
        </mxCell>
        <mxCell id="Gy9qdy7r6_L6vcuzWhop-12" value="&lt;div style=&quot;box-sizing: border-box ; width: 100% ; padding: 2px&quot;&gt;&lt;br&gt;&lt;/div&gt;" style="verticalAlign=top;align=center;overflow=fill;html=1;rounded=1;shadow=0;comic=0;labelBackgroundColor=none;strokeColor=#000000;strokeWidth=1;fillColor=#ffffff;fontFamily=Verdana;fontSize=12;fontColor=#000000;" parent="P3KeosH_1Nq0pWPk4QVd-2" vertex="1">
          <mxGeometry x="-19.047619047619047" width="219.04761904761904" height="80" as="geometry" />
        </mxCell>
        <mxCell id="SjU_2BTI9DgWFUzOwO9X-11" value="date_reservation" style="text;html=1;strokeColor=none;fillColor=none;align=left;verticalAlign=top;whiteSpace=wrap;rounded=0;" parent="P3KeosH_1Nq0pWPk4QVd-2" vertex="1">
          <mxGeometry x="-9.523809523809524" y="21" width="76.19047619047619" height="44" as="geometry" />
        </mxCell>
        <mxCell id="SjU_2BTI9DgWFUzOwO9X-12" value="date&lt;div&gt;&lt;br&gt;&lt;/div&gt;" style="text;html=1;strokeColor=none;fillColor=none;align=left;verticalAlign=top;whiteSpace=wrap;rounded=0;" parent="P3KeosH_1Nq0pWPk4QVd-2" vertex="1">
          <mxGeometry x="110.00190476190475" y="21" width="74.28571428571428" height="44" as="geometry" />
        </mxCell>
        <mxCell id="SjU_2BTI9DgWFUzOwO9X-13" value="" style="endArrow=none;html=1;entryX=1;entryY=0.25;entryDx=0;entryDy=0;exitX=0;exitY=0.25;exitDx=0;exitDy=0;" parent="P3KeosH_1Nq0pWPk4QVd-2" source="Gy9qdy7r6_L6vcuzWhop-12" target="Gy9qdy7r6_L6vcuzWhop-12" edge="1">
          <mxGeometry width="50" height="50" relative="1" as="geometry">
            <mxPoint x="-266.66666666666663" y="155" as="sourcePoint" />
            <mxPoint x="-219.04761904761904" y="105" as="targetPoint" />
          </mxGeometry>
        </mxCell>
        <mxCell id="SjU_2BTI9DgWFUzOwO9X-14" value="reservations" style="text;html=1;strokeColor=none;fillColor=none;align=center;verticalAlign=middle;whiteSpace=wrap;rounded=0;" parent="P3KeosH_1Nq0pWPk4QVd-2" vertex="1">
          <mxGeometry x="20" width="131.42857142857142" height="20" as="geometry" />
        </mxCell>
        <mxCell id="P3KeosH_1Nq0pWPk4QVd-3" value="" style="group" parent="1" vertex="1" connectable="0">
          <mxGeometry x="680" y="120" width="200" height="120" as="geometry" />
        </mxCell>
        <mxCell id="P3KeosH_1Nq0pWPk4QVd-4" value="&lt;div style=&quot;box-sizing: border-box ; width: 100% ; padding: 2px&quot;&gt;&lt;br&gt;&lt;/div&gt;" style="verticalAlign=top;align=center;overflow=fill;html=1;rounded=0;shadow=0;comic=0;labelBackgroundColor=none;strokeColor=#000000;strokeWidth=1;fillColor=#ffffff;fontFamily=Verdana;fontSize=12;fontColor=#000000;" parent="P3KeosH_1Nq0pWPk4QVd-3" vertex="1">
          <mxGeometry width="200" height="120" as="geometry" />
        </mxCell>
        <mxCell id="P3KeosH_1Nq0pWPk4QVd-5" value="visitors" style="rounded=0;whiteSpace=wrap;html=1;" parent="P3KeosH_1Nq0pWPk4QVd-3" vertex="1">
          <mxGeometry width="200" height="26.666666666666664" as="geometry" />
        </mxCell>
        <mxCell id="P3KeosH_1Nq0pWPk4QVd-6" value="first_name&lt;div&gt;last_name&lt;/div&gt;&lt;div&gt;birthdate&lt;/div&gt;&lt;div&gt;email&lt;/div&gt;&lt;div&gt;hash&lt;/div&gt;" style="text;html=1;strokeColor=none;fillColor=none;align=left;verticalAlign=top;whiteSpace=wrap;rounded=0;" parent="P3KeosH_1Nq0pWPk4QVd-3" vertex="1">
          <mxGeometry x="11" y="26.666666666666664" width="90" height="80" as="geometry" />
        </mxCell>
        <mxCell id="P3KeosH_1Nq0pWPk4QVd-7" value="varchar&lt;div&gt;varchar&lt;/div&gt;&lt;div&gt;date&lt;/div&gt;&lt;div&gt;varchar&lt;/div&gt;&lt;div&gt;varchar&lt;/div&gt;" style="text;html=1;strokeColor=none;fillColor=none;align=left;verticalAlign=top;whiteSpace=wrap;rounded=0;" parent="P3KeosH_1Nq0pWPk4QVd-3" vertex="1">
          <mxGeometry x="100" y="26.666666666666664" width="90" height="66.66666666666666" as="geometry" />
        </mxCell>
        <mxCell id="P3KeosH_1Nq0pWPk4QVd-14" value="" style="shape=table;html=1;whiteSpace=wrap;startSize=0;container=1;collapsible=0;childLayout=tableLayout;" parent="1" vertex="1">
          <mxGeometry x="70" y="660" width="320" height="110" as="geometry" />
        </mxCell>
        <mxCell id="P3KeosH_1Nq0pWPk4QVd-15" value="" style="shape=partialRectangle;html=1;whiteSpace=wrap;collapsible=0;dropTarget=0;pointerEvents=0;fillColor=none;top=0;left=0;bottom=0;right=0;points=[[0,0.5],[1,0.5]];portConstraint=eastwest;" parent="P3KeosH_1Nq0pWPk4QVd-14" vertex="1">
          <mxGeometry width="320" height="28" as="geometry" />
        </mxCell>
        <mxCell id="P3KeosH_1Nq0pWPk4QVd-16" value="Projet" style="shape=partialRectangle;html=1;whiteSpace=wrap;connectable=0;overflow=hidden;fillColor=none;top=0;left=0;bottom=0;right=0;" parent="P3KeosH_1Nq0pWPk4QVd-15" vertex="1">
          <mxGeometry width="100" height="28" as="geometry">
            <mxRectangle width="100" height="28" as="alternateBounds" />
          </mxGeometry>
        </mxCell>
        <mxCell id="P3KeosH_1Nq0pWPk4QVd-17" value="Projet_PythonDB" style="shape=partialRectangle;html=1;whiteSpace=wrap;connectable=0;overflow=hidden;fillColor=none;top=0;left=0;bottom=0;right=0;" parent="P3KeosH_1Nq0pWPk4QVd-15" vertex="1">
          <mxGeometry x="100" width="220" height="28" as="geometry">
            <mxRectangle width="220" height="28" as="alternateBounds" />
          </mxGeometry>
        </mxCell>
        <mxCell id="P3KeosH_1Nq0pWPk4QVd-18" value="" style="shape=partialRectangle;html=1;whiteSpace=wrap;collapsible=0;dropTarget=0;pointerEvents=0;fillColor=none;top=0;left=0;bottom=0;right=0;points=[[0,0.5],[1,0.5]];portConstraint=eastwest;" parent="P3KeosH_1Nq0pWPk4QVd-14" vertex="1">
          <mxGeometry y="28" width="320" height="27" as="geometry" />
        </mxCell>
        <mxCell id="P3KeosH_1Nq0pWPk4QVd-19" value="Titre" style="shape=partialRectangle;html=1;whiteSpace=wrap;connectable=0;overflow=hidden;fillColor=none;top=0;left=0;bottom=0;right=0;" parent="P3KeosH_1Nq0pWPk4QVd-18" vertex="1">
          <mxGeometry width="100" height="27" as="geometry">
            <mxRectangle width="100" height="27" as="alternateBounds" />
          </mxGeometry>
        </mxCell>
        <mxCell id="P3KeosH_1Nq0pWPk4QVd-20" value="Projet_PythonDB MCD" style="shape=partialRectangle;html=1;whiteSpace=wrap;connectable=0;overflow=hidden;fillColor=none;top=0;left=0;bottom=0;right=0;" parent="P3KeosH_1Nq0pWPk4QVd-18" vertex="1">
          <mxGeometry x="100" width="220" height="27" as="geometry">
            <mxRectangle width="220" height="27" as="alternateBounds" />
          </mxGeometry>
        </mxCell>
        <mxCell id="P3KeosH_1Nq0pWPk4QVd-21" value="" style="shape=partialRectangle;html=1;whiteSpace=wrap;collapsible=0;dropTarget=0;pointerEvents=0;fillColor=none;top=0;left=0;bottom=0;right=0;points=[[0,0.5],[1,0.5]];portConstraint=eastwest;" parent="P3KeosH_1Nq0pWPk4QVd-14" vertex="1">
          <mxGeometry y="55" width="320" height="28" as="geometry" />
        </mxCell>
        <mxCell id="P3KeosH_1Nq0pWPk4QVd-22" value="Auteurs" style="shape=partialRectangle;html=1;whiteSpace=wrap;connectable=0;overflow=hidden;fillColor=none;top=0;left=0;bottom=0;right=0;" parent="P3KeosH_1Nq0pWPk4QVd-21" vertex="1">
          <mxGeometry width="100" height="28" as="geometry">
            <mxRectangle width="100" height="28" as="alternateBounds" />
          </mxGeometry>
        </mxCell>
        <mxCell id="P3KeosH_1Nq0pWPk4QVd-23" value="Kilian / Ahmet" style="shape=partialRectangle;html=1;whiteSpace=wrap;connectable=0;overflow=hidden;fillColor=none;top=0;left=0;bottom=0;right=0;" parent="P3KeosH_1Nq0pWPk4QVd-21" vertex="1">
          <mxGeometry x="100" width="220" height="28" as="geometry">
            <mxRectangle width="220" height="28" as="alternateBounds" />
          </mxGeometry>
        </mxCell>
        <mxCell id="P3KeosH_1Nq0pWPk4QVd-24" value="" style="shape=partialRectangle;html=1;whiteSpace=wrap;collapsible=0;dropTarget=0;pointerEvents=0;fillColor=none;top=0;left=0;bottom=0;right=0;points=[[0,0.5],[1,0.5]];portConstraint=eastwest;" parent="P3KeosH_1Nq0pWPk4QVd-14" vertex="1">
          <mxGeometry y="83" width="320" height="27" as="geometry" />
        </mxCell>
        <mxCell id="P3KeosH_1Nq0pWPk4QVd-25" value="Version" style="shape=partialRectangle;html=1;whiteSpace=wrap;connectable=0;overflow=hidden;fillColor=none;top=0;left=0;bottom=0;right=0;" parent="P3KeosH_1Nq0pWPk4QVd-24" vertex="1">
          <mxGeometry width="100" height="27" as="geometry">
            <mxRectangle width="100" height="27" as="alternateBounds" />
          </mxGeometry>
        </mxCell>
        <mxCell id="P3KeosH_1Nq0pWPk4QVd-26" value="0.1 du 31.03.2025" style="shape=partialRectangle;html=1;whiteSpace=wrap;connectable=0;overflow=hidden;fillColor=none;top=0;left=0;bottom=0;right=0;" parent="P3KeosH_1Nq0pWPk4QVd-24" vertex="1">
          <mxGeometry x="100" width="220" height="27" as="geometry">
            <mxRectangle width="220" height="27" as="alternateBounds" />
          </mxGeometry>
        </mxCell>
        <mxCell id="Qv4cXs-CxH4iufE7UC2L-7" value="" style="group" parent="1" vertex="1" connectable="0">
          <mxGeometry x="80" y="440" width="200" height="90" as="geometry" />
        </mxCell>
        <mxCell id="Qv4cXs-CxH4iufE7UC2L-8" value="&lt;div style=&quot;box-sizing: border-box ; width: 100% ; padding: 2px&quot;&gt;&lt;br&gt;&lt;/div&gt;" style="verticalAlign=top;align=center;overflow=fill;html=1;rounded=0;shadow=0;comic=0;labelBackgroundColor=none;strokeColor=#000000;strokeWidth=1;fillColor=#ffffff;fontFamily=Verdana;fontSize=12;fontColor=#000000;" parent="Qv4cXs-CxH4iufE7UC2L-7" vertex="1">
          <mxGeometry width="200" height="90" as="geometry" />
        </mxCell>
        <mxCell id="Qv4cXs-CxH4iufE7UC2L-9" value="bands" style="rounded=0;whiteSpace=wrap;html=1;" parent="Qv4cXs-CxH4iufE7UC2L-7" vertex="1">
          <mxGeometry width="200" height="20" as="geometry" />
        </mxCell>
        <mxCell id="Qv4cXs-CxH4iufE7UC2L-10" value="name&lt;br&gt;genre&lt;div&gt;origin&lt;/div&gt;&lt;div&gt;description&lt;br&gt;&lt;div&gt;&lt;br&gt;&lt;/div&gt;&lt;/div&gt;" style="text;html=1;strokeColor=none;fillColor=none;align=left;verticalAlign=top;whiteSpace=wrap;rounded=0;" parent="Qv4cXs-CxH4iufE7UC2L-7" vertex="1">
          <mxGeometry x="11" y="20" width="90" height="60" as="geometry" />
        </mxCell>
        <mxCell id="Qv4cXs-CxH4iufE7UC2L-11" value="varchar&lt;div&gt;varchar&lt;/div&gt;&lt;div&gt;varchar&lt;/div&gt;&lt;div&gt;varchar&lt;/div&gt;" style="text;html=1;strokeColor=none;fillColor=none;align=left;verticalAlign=top;whiteSpace=wrap;rounded=0;" parent="Qv4cXs-CxH4iufE7UC2L-7" vertex="1">
          <mxGeometry x="100" y="20" width="90" height="50" as="geometry" />
        </mxCell>
        <mxCell id="Qv4cXs-CxH4iufE7UC2L-18" value="" style="group" parent="1" vertex="1" connectable="0">
          <mxGeometry x="90" y="310" width="180" height="80" as="geometry" />
        </mxCell>
        <mxCell id="Qv4cXs-CxH4iufE7UC2L-19" value="&lt;div style=&quot;box-sizing: border-box ; width: 100% ; padding: 2px&quot;&gt;&lt;br&gt;&lt;/div&gt;" style="verticalAlign=top;align=center;overflow=fill;html=1;rounded=1;shadow=0;comic=0;labelBackgroundColor=none;strokeColor=#000000;strokeWidth=1;fillColor=#ffffff;fontFamily=Verdana;fontSize=12;fontColor=#000000;" parent="Qv4cXs-CxH4iufE7UC2L-18" vertex="1">
          <mxGeometry width="180" height="80" as="geometry" />
        </mxCell>
        <mxCell id="Qv4cXs-CxH4iufE7UC2L-22" value="" style="endArrow=none;html=1;entryX=1;entryY=0.25;entryDx=0;entryDy=0;exitX=0;exitY=0.25;exitDx=0;exitDy=0;" parent="Qv4cXs-CxH4iufE7UC2L-18" source="Qv4cXs-CxH4iufE7UC2L-19" target="Qv4cXs-CxH4iufE7UC2L-19" edge="1">
          <mxGeometry width="50" height="50" relative="1" as="geometry">
            <mxPoint x="-280" y="155" as="sourcePoint" />
            <mxPoint x="-230" y="105" as="targetPoint" />
          </mxGeometry>
        </mxCell>
        <mxCell id="Qv4cXs-CxH4iufE7UC2L-23" value="takes_part_in" style="text;html=1;strokeColor=none;fillColor=none;align=center;verticalAlign=middle;whiteSpace=wrap;rounded=0;" parent="Qv4cXs-CxH4iufE7UC2L-18" vertex="1">
          <mxGeometry x="21" width="138" height="20" as="geometry" />
        </mxCell>
        <mxCell id="Qv4cXs-CxH4iufE7UC2L-24" value="1,n" style="endArrow=none;html=1;rounded=0;exitX=0.615;exitY=0;exitDx=0;exitDy=0;exitPerimeter=0;entryX=0.628;entryY=1.013;entryDx=0;entryDy=0;entryPerimeter=0;" parent="1" source="Qv4cXs-CxH4iufE7UC2L-9" target="Qv4cXs-CxH4iufE7UC2L-19" edge="1">
          <mxGeometry width="50" height="50" relative="1" as="geometry">
            <mxPoint x="610" y="450" as="sourcePoint" />
            <mxPoint x="660" y="400" as="targetPoint" />
          </mxGeometry>
        </mxCell>
        <mxCell id="Qv4cXs-CxH4iufE7UC2L-25" value="1,1" style="endArrow=none;html=1;rounded=0;exitX=0.659;exitY=0;exitDx=0;exitDy=0;exitPerimeter=0;entryX=0.61;entryY=1;entryDx=0;entryDy=0;entryPerimeter=0;" parent="1" source="Qv4cXs-CxH4iufE7UC2L-23" target="2ed32ef02a7f4228-1" edge="1">
          <mxGeometry width="50" height="50" relative="1" as="geometry">
            <mxPoint x="610" y="450" as="sourcePoint" />
            <mxPoint x="660" y="400" as="targetPoint" />
          </mxGeometry>
        </mxCell>
        <mxCell id="Qv4cXs-CxH4iufE7UC2L-26" value="1,n" style="endArrow=none;html=1;rounded=0;entryX=0;entryY=0.5;entryDx=0;entryDy=0;" parent="1" target="Gy9qdy7r6_L6vcuzWhop-12" edge="1">
          <mxGeometry width="50" height="50" relative="1" as="geometry">
            <mxPoint x="280" y="165" as="sourcePoint" />
            <mxPoint x="660" y="400" as="targetPoint" />
          </mxGeometry>
        </mxCell>
        <mxCell id="Qv4cXs-CxH4iufE7UC2L-27" value="1,n" style="endArrow=none;html=1;rounded=0;exitX=1;exitY=0.5;exitDx=0;exitDy=0;entryX=0;entryY=0.5;entryDx=0;entryDy=0;" parent="1" source="Gy9qdy7r6_L6vcuzWhop-12" target="P3KeosH_1Nq0pWPk4QVd-4" edge="1">
          <mxGeometry width="50" height="50" relative="1" as="geometry">
            <mxPoint x="610" y="450" as="sourcePoint" />
            <mxPoint x="660" y="400" as="targetPoint" />
          </mxGeometry>
        </mxCell>
      </root>
    </mxGraphModel>
  </diagram>
</mxfile>
